<svg width="630" height="206" viewBox="0 0 630 206" fill="none" xmlns="http://www.w3.org/2000/svg">
<path d="M28.3713 7.29747C24.1173 0.18883 14.9061 -2.12532 7.79747 2.12868C0.68883 6.38267 -1.62532 15.5939 2.62868 22.7025L15.5 15L28.3713 7.29747ZM621.476 14.1562C621.01 5.88509 613.927 -0.442245 605.656 0.0237497L470.87 7.61757C462.599 8.08357 456.272 15.1664 456.737 23.4376C457.203 31.7087 464.286 38.0361 472.558 37.5701L592.368 30.82L599.118 150.63C599.584 158.901 606.666 165.228 614.938 164.763C623.209 164.297 629.536 157.214 629.07 148.942L621.476 14.1562ZM15.5 15L2.62868 22.7025C43.4041 90.8403 123.312 173.687 231.16 198.008C340.5 222.665 473.688 186.187 617.686 24.9932L606.5 15L595.314 5.00682C456.179 160.755 333.38 190.306 237.76 168.743C140.649 146.843 66.6235 71.2188 28.3713 7.29747L15.5 15Z" fill="url(#paint0_linear_16_2)"/>
<defs>
<linearGradient id="paint0_linear_16_2" x1="103.884" y1="28.9886" x2="514.662" y2="82.0401" gradientUnits="userSpaceOnUse">
<stop stop-color="#5D4CF6"/>
<stop offset="1" stop-color="#264AFF"/>
</linearGradient>
</defs>
</svg>
